PathFileType	4	(X/Y/Z)	9_2_83_p0_0-191.trc
DataRate	CameraRate	NumFrames	NumMarkers	Units	OrigDataRate	OrigDataStartFrame	OrigNumFrames
60.0	60.0	5	27	m	60.0	168	192
Frame#	Time	RHip			RKnee			RAnkle			RBigToe			RSmallToe			RHeel			LHip			LKnee			LAnkle			LBigToe			LSmallToe			LHeel			Neck			Head			Nose			RShoulder			RElbow			RWrist			RThumb			RIndex			RPinky			LShoulder			LElbow			LWrist			LThumb			LIndex			LPinky			
		X1	Y1	Z1	X2	Y2	Z2	X3	Y3	Z3	X4	Y4	Z4	X5	Y5	Z5	X6	Y6	Z6	X7	Y7	Z7	X8	Y8	Z8	X9	Y9	Z9	X10	Y10	Z10	X11	Y11	Z11	X12	Y12	Z12	X13	Y13	Z13	X14	Y14	Z14	X15	Y15	Z15	X16	Y16	Z16	X17	Y17	Z17	X18	Y18	Z18	X19	Y19	Z19	X20	Y20	Z20	X21	Y21	Z21	X22	Y22	Z22	X23	Y23	Z23	X24	Y24	Z24	X25	Y25	Z25	X26	Y26	Z26	X27	Y27	Z27	
168	2.8	0.3072156196858396	0.5037247265108684	0.9990349654294617	0.31948160564823586	0.5545049161765107	1.442764608505451	0.31502884514844637	0.6339981937360271	1.8478865404786906	0.28172571111842554	0.4633617563845932	1.9006799231620986	0.34760073295433547	0.5284273417714345	1.9174579180288958	0.2735007323444673	0.6987980519404097	1.9261894762237843	0.10545049672907321	0.5027808288707887	0.983367084907181	0.09608964234056304	0.5549864672641912	1.4397738675501823	0.10052465433497951	0.5877983483728003	1.8478093158446693	0.1285975863969687	0.4662935334163455	1.9126230254283194	0.06060500678306774	0.4769869259498335	1.8934582581502664	0.1132972042833191	0.6585130573832014	1.911953559929925	0.2113540612774976	0.4850040970282612	0.5007532639789346	0.23105784002107216	0.3969342338884806	0.25084296981283855	0.23119041744429972	0.3437637728206451	0.3812606878510497	0.353557940689207	0.4789087051872754	0.5909345996454057	0.39659591632649355	0.48703343827018375	0.8447713453539123	0.2872760823112256	0.3369499065894218	1.0322793618501689	0.18819507680487824	0.3389123005286721	1.1117061081414428	0.18164933412038356	0.35264010482518643	1.125219988287071	0.21432225063517849	0.3578097432886659	1.1310505690999075	0.06654770178579568	0.4544965207696366	0.5800320183490119	0.04438177819700508	0.47152172807229936	0.8439384842772452	0.13676781274306757	0.36429923852454643	1.0345076988917585	0.19812254627780645	0.30760289415879694	1.088376220749604	0.1973288070858401	0.3104328595134449	1.1135168100404658	0.17680735792859054	0.36468668205286003	1.1340720649613996
169	2.816666666666667	0.30727866196141146	0.5036373895388155	0.999034848249334	0.319528376139634	0.5544766490525537	1.442815841796308	0.31499998365200466	0.6339957752573346	1.8478844289859075	0.28643002012430707	0.4494691026576154	1.892753707927397	0.3520002318439649	0.512994284053029	1.9087803356713062	0.27342039724353895	0.6987002277673272	1.9262034313173702	0.10160503859902312	0.49897495583776585	0.9865272851973746	0.09618233147674093	0.5550780623162033	1.4399631562798123	0.10140407181043098	0.5901571544037344	1.8536190421240608	0.12907576950123628	0.46380343540699737	1.9158979876086242	0.060623446850949475	0.4768852568119017	1.8934621737891217	0.10733455052716485	0.6751143792619406	1.9206222603119523	0.21136353365873847	0.4850108141385294	0.5007619926141348	0.2310696856165482	0.397091754245889	0.2507793604309052	0.23119627313641009	0.34376937039732813	0.38124942351742125	0.35369303761073884	0.4792776485757118	0.5909656475903972	0.3965814252877432	0.4869623146898081	0.8447630743234799	0.2826745125692435	0.35121722417883494	1.0322382187656685	0.18832574357962734	0.33924504955407647	1.1116916846170544	0.18208453885560455	0.3517457208696106	1.1286843438568257	0.21125037806987393	0.34642866579826437	1.1277365745908519	0.06655062411493304	0.4544766381063727	0.5801132283427953	0.047489981631453765	0.44555500976479173	0.8391326448399711	0.1367587300210002	0.36425073684832576	1.0344978668252665	0.198212364504409	0.3077460360582001	1.088413662559017	0.19775075650204332	0.3096215638548993	1.1166940530657015	0.171991448743069	0.37750692571833017	1.1380860398651813
170	2.8333333333333335	0.30727089871122937	0.5037045324996042	0.9991271128086369	0.31947114106211055	0.5545966446747657	1.4428209231445799	0.3135906252612094	0.637284639943315	1.8495106329218454	0.2853376990850246	0.4505179138367974	1.8974006672050228	0.3519991192339834	0.5129355160895311	1.9087994322714426	0.2773562647327933	0.7134218697701485	1.9336204139437887	0.10162423634771812	0.4993641751751278	0.9867541793835921	0.09683941674428509	0.5570165706188837	1.4447188702577876	0.09986390126657332	0.5926514193351408	1.8552693276147725	0.12857287107714435	0.465742794540908	1.912361345285795	0.0605905523159816	0.47673480986271316	1.8934043236665477	0.10733469254123422	0.6750852380963133	1.9206753884200831	0.2113704335005246	0.4849520999116877	0.5007899807835751	0.23105832221716022	0.39702272117859	0.25081613738545566	0.2311911997176097	0.34377174813379757	0.3813138651272294	0.3536762633429638	0.4790371692607317	0.5909618088765162	0.3969011536207866	0.4858696953939455	0.8485849328356313	0.28271966730879894	0.3511179298855764	1.0322694482179364	0.18784470422053287	0.33964977485566145	1.1145470599564404	0.18183206579966843	0.35241677013195716	1.125374686320574	0.21135005872218887	0.34641776655056716	1.1277207438965289	0.06884747714273279	0.46582940525282357	0.581110440836789	0.04747643117597495	0.4456124935935581	0.8390540571784485	0.13670713039274857	0.3640080283995796	1.0345065406635343	0.19809906419420092	0.30820068964567177	1.0887544556661761	0.19779421781524015	0.30980015385336707	1.1168294861050203	0.17689178099995986	0.3645847548447004	1.1340025136195748
171	2.85	0.3107507175998781	0.515584708945836	1.0016028042279557	0.31950048686681604	0.5545933229079824	1.4427621910998827	0.31397272403039067	0.6352994998261402	1.8529685637722508	0.2853207394882734	0.4503834323758712	1.897649861173092	0.35209489096544627	0.5127262311500178	1.9090902851765554	0.2772833467996954	0.7131367052111721	1.9336971577112547	0.10567233244597946	0.5023433605625115	0.98322838892537	0.09693298123436267	0.5571106438338271	1.4445744185570248	0.09985454036179552	0.5927428379857167	1.8552655272321623	0.12799867958284056	0.46488262601871	1.9206558984140918	0.060602990495961656	0.4769689549810694	1.8936717179854508	0.10733802112489131	0.6751422615304944	1.9206993549459097	0.21140045181935346	0.48499386514953546	0.5007936880842102	0.2310786293024395	0.3970511711651799	0.25079275940623963	0.2312082430896193	0.3438497984182449	0.38129782563457687	0.3538609929321638	0.478791474393723	0.5874670956118866	0.39693722542492843	0.48585326964989456	0.8485478497407019	0.28725219807236363	0.33677243894018255	1.0322492995170776	0.18856987062533997	0.3384377652978421	1.1114368795937437	0.1822185055181151	0.3510161716797737	1.1284287916980689	0.21070831595310396	0.347110364273983	1.1244981574815311	0.06891841618070046	0.46579633430082595	0.581066900765565	0.04752058301277544	0.44544381590645554	0.8390425592162118	0.1367444894152586	0.3638220443255411	1.0344730106898599	0.19826205190533666	0.3075776972668222	1.0883168237440772	0.19780360160410054	0.30939658574432843	1.1167570892230048	0.17679072434700846	0.36445471452092043	1.1341193601493444
172	2.8666666666666667	0.31049856104121487	0.516762765754616	0.9982172708928672	0.3194653114146403	0.5544437145462879	1.4427164788750733	0.3139769270936404	0.6351150490276393	1.852889605478826	0.28524280558054615	0.45031630003689105	1.8977799898747427	0.3511015711448213	0.5136663485252657	1.9139758896934984	0.2777298384759048	0.7115767740364954	1.9368956943567053	0.11139961294499079	0.490727609399859	0.9843980787058831	0.09691813388436353	0.5571155966419739	1.44474780428645	0.09544188151669056	0.6072537242480966	1.8581865130459256	0.1280893103675487	0.4650238586063667	1.9206840911285168	0.06061109120666432	0.4770189377707518	1.8937261636534488	0.10728817191131976	0.6754087571454087	1.9207597945115809	0.21142976540651803	0.48503850385283714	0.5007834910291172	0.23107334935501048	0.39706049195008286	0.25077057782092016	0.23100997697593578	0.3444650491611064	0.3779079695511876	0.3537007607730411	0.47913713851595474	0.5909531834750198	0.39663342609368524	0.4868303230259511	0.8447789095029767	0.28293476419345615	0.34987387942408776	1.0359367206478283	0.18837411562520281	0.33867806272280176	1.111666355632972	0.18176255523117582	0.35237995243962383	1.1252879812638732	0.21096636345557582	0.3465042324226524	1.127733251194054	0.06892016833233514	0.4657650911656921	0.5810975993560101	0.047496917915602274	0.4455302509011299	0.83891836289116	0.13670551435888834	0.36387068767035813	1.0344198014785504	0.19813371615374906	0.30769067887075224	1.0884451225407181	0.19734341880945708	0.3104856711240119	1.113555933656403	0.17679034115646222	0.36449534514491855	1.1341095260831986
